<?xml version="1.0" standalone="no"?>
<!DOCTYPE svg PUBLIC "-//W3C//DTD SVG 20010904//EN"
 "http://www.w3.org/TR/2001/REC-SVG-20010904/DTD/svg10.dtd">
<svg version="1.0" xmlns="http://www.w3.org/2000/svg"
 width="970.000000pt" height="970.000000pt" viewBox="0 0 970.000000 970.000000"
 preserveAspectRatio="xMidYMid meet">

<g transform="translate(0.000000,970.000000) scale(0.100000,-0.100000)"
fill="#000000" stroke="none">
<path d="M3663 9685 c-17 -7 -33 -11 -36 -9 -2 3 -17 -1 -33 -7 -16 -6 -38
-13 -49 -14 -11 -2 -45 -13 -75 -24 -30 -12 -65 -21 -77 -21 -12 0 -24 -4 -28
-9 -3 -5 -22 -15 -43 -21 -20 -6 -46 -15 -57 -19 -11 -5 -42 -15 -70 -24 -70
-21 -147 -53 -237 -98 -43 -22 -84 -39 -91 -39 -18 0 -261 -121 -265 -132 -2
-4 -36 -24 -75 -44 -40 -20 -99 -53 -132 -75 -33 -21 -69 -43 -80 -48 -11 -5
-29 -18 -39 -30 -11 -11 -24 -21 -31 -21 -7 0 -20 -9 -29 -19 -10 -11 -28 -22
-42 -25 -13 -4 -24 -11 -24 -16 0 -5 -16 -16 -34 -24 -19 -8 -41 -24 -48 -35
-7 -12 -18 -21 -24 -21 -13 0 -70 -41 -129 -92 -23 -21 -46 -38 -50 -38 -22 0
-542 -511 -648 -637 -117 -138 -127 -151 -127 -160 0 -5 -18 -27 -40 -48 -22
-21 -40 -44 -40 -51 0 -6 -10 -23 -22 -37 -13 -14 -34 -44 -48 -68 -14 -23
-36 -56 -50 -73 -29 -36 -47 -63 -59 -91 -5 -12 -16 -27 -25 -34 -9 -7 -16
-21 -16 -31 0 -10 -6 -20 -13 -23 -8 -3 -34 -42 -58 -87 -56 -105 -135 -256
-178 -340 -18 -36 -37 -73 -42 -82 -5 -10 -9 -25 -9 -33 0 -8 -4 -15 -10 -15
-5 0 -10 -9 -10 -20 0 -10 -15 -48 -33 -82 -19 -35 -40 -83 -47 -108 -7 -25
-20 -63 -30 -85 -9 -22 -22 -60 -29 -85 -7 -25 -17 -53 -22 -62 -5 -10 -9 -25
-9 -33 0 -8 -4 -23 -9 -33 -25 -49 -41 -95 -41 -117 0 -14 -4 -33 -9 -43 -15
-31 -31 -88 -31 -115 0 -14 -4 -28 -9 -31 -8 -6 -15 -36 -27 -136 -4 -25 -11
-51 -16 -57 -6 -7 -12 -29 -13 -50 -8 -78 -21 -149 -34 -171 -7 -13 -11 -33
-9 -45 5 -31 38 71 38 117 0 19 4 38 10 41 5 3 10 28 10 56 0 27 4 49 9 49 5
0 12 21 15 48 11 94 18 132 27 138 5 3 9 17 9 32 0 15 10 52 21 82 12 30 23
69 26 85 2 17 8 39 12 50 5 11 14 38 20 60 7 22 16 49 21 60 4 11 14 40 21 65
7 25 16 50 20 55 4 6 20 48 37 96 17 47 42 109 56 139 14 30 26 59 26 64 0 15
193 397 218 433 11 15 32 52 47 82 14 29 31 59 36 65 13 15 50 75 73 116 10
19 29 46 41 60 20 23 44 58 70 99 6 9 20 29 33 44 12 16 22 33 22 38 0 6 14
22 30 36 17 14 40 43 50 64 11 21 29 43 39 49 11 5 23 20 27 32 9 32 95 125
341 371 237 237 344 337 361 337 6 0 33 20 59 45 26 24 51 45 54 45 3 0 16 9
29 20 13 11 28 20 35 20 7 0 20 10 31 21 17 20 68 57 114 84 10 6 26 17 35 25
9 8 25 19 35 25 10 5 42 27 72 48 31 20 58 37 62 37 4 0 31 15 59 34 29 19 75
46 102 61 28 15 75 41 105 58 31 18 91 49 135 69 44 20 119 55 168 77 48 23
93 41 100 41 6 0 26 7 42 16 17 9 57 24 90 35 33 11 68 24 77 30 10 5 26 9 35
9 10 0 33 9 51 20 18 11 42 20 53 20 19 0 122 30 174 51 25 10 69 19 120 26
22 3 44 9 50 14 15 14 -56 10 -92 -6z"/>
<path d="M5950 9690 c8 -5 26 -10 39 -10 14 0 38 -4 55 -9 17 -5 51 -15 76
-21 25 -7 53 -16 62 -21 10 -5 28 -9 41 -9 12 0 47 -9 77 -21 129 -49 217 -81
240 -86 14 -4 38 -15 55 -25 16 -10 37 -18 46 -18 9 0 51 -18 94 -40 43 -22
90 -44 104 -48 37 -11 392 -198 401 -212 3 -4 28 -19 55 -33 28 -15 68 -40 90
-56 22 -17 58 -39 81 -50 23 -11 52 -32 65 -45 13 -14 29 -26 35 -26 6 0 19
-9 29 -20 10 -11 24 -20 31 -20 7 0 30 -16 51 -35 21 -19 43 -35 48 -35 6 0
31 -20 55 -45 24 -25 49 -45 55 -45 6 0 33 -23 60 -51 28 -28 63 -60 79 -70
36 -22 456 -439 456 -453 0 -5 24 -35 53 -67 104 -117 137 -156 137 -166 0 -5
9 -18 21 -29 12 -10 36 -41 53 -69 50 -77 63 -96 101 -145 19 -25 39 -55 44
-67 6 -11 14 -24 20 -27 6 -4 18 -24 28 -44 9 -20 25 -48 36 -62 26 -35 86
-137 109 -185 10 -22 24 -49 30 -60 15 -26 155 -311 173 -350 7 -16 18 -43 25
-60 7 -16 16 -38 21 -47 5 -10 9 -25 9 -33 0 -8 9 -32 20 -52 11 -21 20 -43
20 -50 0 -8 4 -21 10 -31 5 -9 20 -53 34 -97 36 -116 71 -214 79 -222 4 -3 7
-17 7 -30 0 -25 18 -106 31 -138 4 -11 10 -33 13 -50 2 -16 10 -50 16 -75 6
-25 15 -67 18 -95 4 -27 12 -57 17 -65 5 -8 13 -42 18 -75 19 -146 28 -216 38
-305 15 -127 14 -976 0 -1105 -6 -55 -14 -129 -17 -165 -3 -36 -10 -69 -15
-74 -5 -6 -9 -32 -9 -59 0 -26 -5 -58 -11 -69 -6 -11 -15 -44 -20 -72 -4 -28
-11 -67 -14 -86 -4 -19 -10 -44 -15 -55 -10 -23 -20 -65 -27 -118 -3 -20 -9
-40 -14 -43 -5 -3 -9 -16 -9 -30 0 -25 -41 -156 -59 -192 -5 -9 -14 -37 -21
-62 -7 -25 -16 -53 -21 -62 -5 -10 -9 -27 -9 -37 0 -11 -4 -23 -10 -26 -5 -3
-10 -14 -10 -23 0 -10 -9 -34 -20 -55 -11 -20 -20 -43 -20 -50 0 -7 -9 -32
-20 -55 -11 -22 -20 -45 -20 -50 0 -8 -116 -250 -143 -297 -6 -11 -33 -65 -60
-120 -28 -55 -53 -102 -57 -105 -4 -3 -19 -28 -33 -57 -15 -28 -31 -54 -37
-58 -5 -3 -17 -23 -26 -43 -10 -20 -24 -45 -32 -55 -9 -9 -20 -26 -26 -36 -31
-53 -125 -188 -139 -200 -10 -7 -17 -19 -17 -25 0 -6 -13 -24 -30 -39 -16 -16
-30 -33 -30 -39 0 -13 -42 -64 -127 -157 -35 -37 -63 -72 -63 -77 0 -13 -451
-455 -527 -517 -32 -26 -84 -70 -116 -97 -31 -28 -61 -50 -67 -50 -5 0 -19
-10 -32 -22 -13 -13 -42 -35 -65 -51 -24 -15 -43 -32 -43 -37 0 -6 -6 -10 -14
-10 -8 0 -27 -10 -43 -22 -30 -24 -50 -38 -97 -66 -16 -9 -59 -37 -95 -60 -36
-24 -84 -53 -106 -64 -22 -12 -42 -24 -45 -28 -6 -10 -384 -200 -397 -200 -5
0 -37 -14 -71 -30 -34 -17 -69 -30 -77 -30 -9 0 -39 -13 -68 -30 -30 -16 -63
-30 -75 -30 -11 0 -23 -4 -26 -9 -4 -5 -32 -17 -64 -26 -31 -9 -66 -21 -77
-25 -11 -4 -40 -13 -65 -20 -25 -6 -73 -20 -106 -31 -34 -10 -73 -19 -87 -19
-14 0 -29 -5 -32 -10 -3 -6 -20 -10 -36 -10 -17 0 -44 -7 -60 -16 -17 -8 -36
-13 -43 -11 -7 3 -23 -1 -37 -9 -13 -7 -43 -13 -66 -14 -24 0 -43 -4 -43 -10
0 -6 -26 -10 -58 -10 -38 0 -65 -5 -78 -16 -19 -15 -19 -16 1 -8 18 7 57 13
185 29 25 4 54 10 65 15 11 5 34 11 50 15 84 18 117 26 200 50 50 15 102 28
118 29 15 1 33 8 39 14 7 7 20 12 30 12 10 0 26 4 36 9 9 5 58 22 107 37 50
15 92 30 95 33 9 10 100 51 113 51 8 0 40 14 72 30 32 17 63 30 68 30 15 0
376 181 383 192 3 5 29 20 58 33 29 13 59 31 66 40 7 8 18 15 25 15 7 0 18 7
25 15 7 9 32 24 54 35 23 10 50 28 60 39 11 12 25 21 33 21 7 0 21 9 30 20 10
11 23 20 30 20 7 0 28 13 46 30 19 16 38 30 42 30 4 0 27 17 51 38 23 20 66
55 95 77 28 22 75 60 103 85 28 25 67 57 86 72 56 41 437 424 464 466 13 20
47 59 75 87 28 27 51 54 51 60 0 6 16 25 35 44 19 18 35 38 35 45 0 7 9 21 20
31 11 10 31 37 45 60 13 24 31 45 40 49 8 3 15 10 15 16 0 5 20 39 45 76 25
36 45 69 45 74 0 5 9 14 20 20 11 6 20 17 20 24 0 20 28 71 50 91 11 10 20 22
20 27 0 5 18 37 40 70 22 34 40 67 40 74 0 7 15 38 33 71 45 80 157 308 157
321 0 5 7 15 15 22 8 7 15 20 15 29 0 10 9 36 20 59 11 22 20 47 20 55 0 8 9
26 20 40 11 14 20 39 20 55 0 17 4 33 9 37 5 3 17 31 26 63 9 31 19 64 22 72
3 8 5 22 4 31 -1 9 5 22 14 29 8 7 15 21 15 31 0 10 5 31 11 46 6 15 15 37 20
48 4 11 10 35 13 53 3 17 9 47 12 65 3 17 9 41 15 52 5 11 13 38 18 60 6 22
15 58 22 80 6 22 13 63 16 90 3 28 9 54 14 60 5 5 9 34 9 65 0 31 4 60 9 66 9
9 16 71 27 234 3 47 10 90 15 96 13 15 12 933 0 948 -5 6 -12 49 -15 96 -10
150 -17 215 -26 235 -5 11 -11 47 -15 80 -13 123 -17 150 -26 160 -5 5 -9 19
-9 32 0 12 -6 40 -14 60 -17 46 -31 99 -47 178 -7 33 -16 64 -21 70 -4 5 -8
21 -8 36 0 15 -4 31 -10 34 -5 3 -10 17 -10 29 0 13 -7 29 -15 36 -8 7 -15 22
-15 34 0 11 -18 71 -39 131 -59 169 -70 198 -86 227 -8 14 -15 32 -15 40 0 7
-13 38 -30 68 -16 30 -33 62 -36 70 -19 45 -109 227 -119 240 -6 8 -22 40 -35
70 -13 30 -32 64 -41 75 -9 11 -26 39 -38 63 -12 24 -28 45 -35 48 -8 3 -16
19 -20 35 -6 29 -53 104 -88 141 -10 10 -18 23 -18 29 0 7 -13 25 -30 41 -16
15 -30 35 -30 43 0 8 -4 15 -8 15 -5 0 -15 12 -23 28 -17 33 -59 89 -116 152
-24 26 -43 52 -43 59 0 7 -21 31 -46 54 -25 23 -53 55 -61 71 -17 33 -413 431
-457 460 -16 10 -58 44 -93 75 -116 103 -150 131 -160 131 -5 0 -24 16 -43 35
-19 19 -39 35 -45 35 -7 0 -20 9 -30 20 -10 11 -23 20 -29 20 -6 0 -23 11 -37
24 -15 13 -48 36 -75 50 -27 15 -74 44 -104 66 -30 22 -60 40 -67 40 -6 0 -24
10 -40 23 -15 13 -58 38 -95 56 -38 18 -68 36 -68 40 0 10 -244 131 -263 131
-9 0 -40 13 -69 28 -29 16 -75 37 -103 47 -27 11 -63 27 -80 37 -16 10 -40 18
-52 18 -12 0 -25 5 -28 10 -3 6 -15 10 -26 10 -10 0 -27 4 -37 9 -9 5 -36 15
-59 22 -24 7 -43 16 -43 21 0 4 -10 8 -23 8 -13 0 -28 5 -34 11 -6 6 -24 12
-40 13 -15 1 -55 10 -88 20 -33 10 -81 25 -107 32 -55 17 -121 19 -98 4z"/>
<path d="M4426 9633 c-4 -4 -48 -11 -99 -15 -172 -15 -212 -20 -221 -29 -6 -5
-36 -9 -67 -9 -32 0 -61 -4 -64 -10 -3 -5 -20 -10 -36 -10 -17 0 -44 -7 -60
-16 -17 -8 -40 -14 -52 -12 -12 1 -36 -2 -52 -9 -17 -6 -55 -16 -84 -23 -30
-7 -74 -21 -98 -32 -24 -10 -77 -23 -118 -27 -44 -5 -87 -16 -103 -27 -29 -20
-82 -42 -122 -51 -14 -4 -40 -15 -58 -25 -18 -10 -39 -18 -47 -18 -7 0 -54
-20 -104 -45 -50 -25 -95 -45 -100 -45 -14 0 -289 -138 -293 -147 -1 -4 -21
-17 -43 -28 -22 -11 -59 -32 -81 -47 -23 -16 -46 -28 -50 -29 -5 0 -29 -16
-54 -34 -25 -19 -67 -46 -95 -60 -27 -14 -57 -34 -65 -44 -9 -10 -27 -24 -40
-31 -26 -13 -61 -40 -129 -97 -21 -18 -42 -33 -46 -33 -4 0 -25 -15 -46 -32
-21 -18 -52 -44 -69 -57 -17 -13 -36 -35 -41 -48 -5 -13 -21 -28 -36 -34 -15
-6 -30 -13 -33 -17 -3 -4 -23 -20 -45 -37 -54 -39 -289 -274 -305 -304 -7 -13
-41 -54 -75 -90 -67 -70 -143 -161 -161 -193 -6 -11 -23 -31 -36 -46 -14 -15
-41 -52 -60 -82 -20 -30 -45 -64 -57 -74 -12 -11 -21 -23 -21 -29 0 -5 -11
-22 -25 -39 -14 -16 -25 -35 -25 -43 0 -7 -6 -18 -14 -24 -7 -6 -35 -48 -61
-94 -26 -45 -56 -93 -66 -107 -10 -14 -28 -45 -40 -70 -12 -25 -53 -108 -92
-185 -38 -77 -78 -157 -89 -177 -10 -20 -18 -42 -18 -48 0 -6 -13 -36 -28 -68
-16 -31 -42 -93 -57 -137 -15 -44 -36 -94 -46 -113 -11 -18 -19 -48 -19 -67 0
-19 -9 -52 -20 -72 -11 -21 -20 -44 -20 -52 0 -8 -12 -53 -26 -100 -14 -47
-30 -104 -36 -126 -5 -22 -14 -54 -19 -71 -5 -17 -9 -42 -9 -57 0 -15 -4 -27
-10 -27 -5 0 -10 -22 -10 -49 0 -28 -5 -53 -10 -56 -6 -3 -10 -26 -10 -50 0
-24 -5 -56 -11 -72 -6 -15 -11 -49 -10 -76 1 -26 -6 -70 -15 -97 -9 -27 -14
-67 -12 -87 3 -21 -1 -58 -8 -82 -15 -53 -19 -852 -4 -881 5 -9 10 -50 11 -91
1 -41 6 -85 12 -99 9 -24 21 -104 33 -230 3 -30 10 -59 15 -64 5 -6 9 -29 9
-52 0 -24 4 -45 9 -48 5 -3 12 -24 15 -46 3 -22 9 -58 12 -80 4 -25 13 -44 25
-51 16 -8 17 -13 7 -29 -9 -13 -9 -25 -2 -42 24 -52 44 -119 61 -201 3 -15 9
-30 14 -33 5 -3 9 -16 9 -29 0 -13 4 -27 10 -30 5 -3 10 -17 10 -30 0 -13 5
-27 10 -30 6 -3 10 -14 10 -24 0 -9 9 -36 20 -59 11 -22 20 -46 20 -51 0 -24
294 -626 310 -636 6 -4 17 -22 25 -42 8 -19 26 -48 39 -64 13 -16 30 -44 36
-64 6 -19 16 -35 21 -35 6 0 16 -15 24 -34 8 -19 20 -38 25 -41 6 -4 15 -17
21 -28 5 -12 25 -42 44 -67 19 -25 46 -61 59 -80 13 -19 33 -44 45 -54 11 -11
21 -24 21 -29 0 -11 44 -62 148 -176 34 -37 62 -72 62 -78 0 -6 26 -35 58 -66
31 -30 68 -66 82 -80 14 -13 63 -63 109 -110 46 -48 88 -87 93 -87 5 0 47 -35
94 -78 129 -118 180 -162 191 -162 5 0 18 -10 29 -21 10 -12 48 -41 84 -64 36
-23 74 -52 84 -64 11 -11 27 -21 37 -21 10 0 22 -6 26 -14 4 -7 31 -25 58 -40
28 -14 68 -39 90 -55 22 -17 56 -38 75 -47 19 -10 49 -28 65 -40 35 -25 340
-178 375 -188 14 -4 52 -20 85 -36 78 -36 166 -70 186 -70 8 0 19 -4 24 -9 12
-12 304 -110 360 -122 64 -13 116 -26 175 -44 30 -9 73 -19 95 -21 22 -3 49
-9 60 -14 11 -5 40 -12 65 -15 161 -21 203 -27 275 -36 110 -15 975 -23 989
-9 5 5 44 10 86 10 42 0 80 4 85 9 6 5 39 12 75 15 108 9 165 17 175 27 5 5
26 9 48 9 21 0 46 4 55 9 9 5 31 11 48 14 17 3 41 10 52 16 11 6 31 11 43 11
12 0 36 4 53 9 17 5 51 15 76 22 25 7 49 16 55 21 5 4 22 8 37 8 16 0 46 9 68
20 22 11 48 20 59 20 11 0 23 5 26 10 3 6 14 10 23 10 9 0 30 7 46 15 15 8 34
15 40 15 7 0 31 9 54 20 22 11 46 20 52 20 13 0 113 50 120 60 11 15 50 30 81
30 18 0 40 7 49 15 8 8 72 42 140 75 69 34 133 69 142 77 10 9 35 25 57 37 21
11 61 33 89 48 27 15 71 42 97 60 26 18 57 40 69 48 13 8 40 27 62 41 21 15
48 36 58 48 11 11 24 21 31 21 6 0 24 13 40 30 16 16 34 30 40 30 6 0 27 16
46 36 18 20 47 42 62 50 15 8 47 35 70 60 23 25 58 54 77 64 36 19 390 370
390 387 0 5 23 34 50 64 28 29 57 66 65 80 8 14 41 51 75 82 48 45 62 65 67
95 4 26 19 52 52 87 45 48 110 137 140 194 8 14 18 28 23 29 4 2 19 28 33 57
13 29 28 56 33 59 5 3 35 58 67 123 32 65 68 132 80 148 12 17 31 55 42 85 12
30 37 85 57 123 20 37 36 74 36 83 0 8 9 32 19 52 20 39 26 55 73 197 28 83
48 134 69 177 5 10 9 29 9 42 0 14 4 27 9 30 5 3 11 23 14 43 5 36 13 69 38
168 6 22 13 57 16 78 3 20 9 40 14 43 5 3 9 20 9 37 0 18 7 54 15 81 8 27 12
59 9 72 -4 14 0 34 9 47 8 13 18 50 21 83 4 32 11 102 17 154 15 129 15 978 0
1095 -6 50 -14 119 -17 155 -3 36 -11 71 -16 78 -9 11 -15 43 -34 187 -3 22
-9 49 -14 60 -5 11 -11 34 -14 50 -2 17 -10 50 -16 75 -6 25 -14 62 -17 83 -3
20 -9 40 -14 43 -5 3 -9 18 -9 35 0 16 -4 37 -9 47 -5 9 -16 40 -25 67 -22 73
-41 124 -49 131 -4 4 -7 17 -7 28 0 24 -37 126 -51 140 -5 6 -9 18 -9 28 0 22
-17 59 -167 365 -68 139 -128 255 -134 258 -5 4 -19 28 -30 56 -12 27 -25 49
-30 49 -5 0 -21 24 -36 54 -34 66 -155 247 -178 266 -10 8 -21 24 -26 37 -5
13 -14 23 -21 23 -7 0 -24 22 -37 48 -24 48 -57 91 -148 190 -29 31 -53 61
-53 67 0 13 -343 355 -356 355 -5 0 -39 29 -76 65 -36 36 -71 65 -77 65 -6 0
-36 25 -66 55 -31 30 -62 55 -69 55 -7 0 -21 10 -32 21 -10 12 -35 32 -54 45
-19 13 -55 40 -80 59 -25 19 -55 39 -67 44 -11 6 -24 15 -28 21 -3 6 -29 22
-56 36 -28 14 -71 40 -97 58 -26 19 -72 46 -102 61 -30 15 -62 33 -70 40 -21
18 -334 175 -349 175 -6 0 -38 14 -71 30 -33 17 -64 30 -70 30 -6 0 -29 9 -53
19 -23 11 -67 28 -97 37 -30 9 -59 21 -64 25 -6 5 -20 9 -32 9 -13 0 -26 5
-29 10 -3 6 -15 10 -26 10 -10 0 -27 4 -37 9 -30 15 -88 31 -113 31 -14 0 -29
4 -35 8 -5 5 -29 14 -54 21 -25 7 -61 17 -80 23 -19 6 -53 15 -75 20 -22 5
-60 14 -85 19 -25 6 -70 13 -100 15 -30 3 -64 9 -75 14 -43 18 -74 23 -195 32
-160 12 -974 21 -984 11z m498 -823 c-2 -33 -18 -104 -48 -215 -14 -49 -26
-99 -26 -110 0 -11 -10 -44 -21 -75 -35 -89 -36 -93 -49 -150 -7 -30 -18 -73
-25 -95 -7 -22 -25 -85 -40 -140 -39 -143 -73 -257 -107 -355 -16 -47 -33
-106 -38 -133 -13 -69 -89 -336 -107 -377 -17 -37 -31 -91 -40 -153 -3 -20 -9
-40 -14 -43 -5 -3 -9 -14 -9 -25 0 -10 -4 -27 -9 -37 -5 -9 -14 -42 -21 -72
-7 -30 -27 -100 -45 -155 -31 -96 -44 -142 -65 -222 -5 -21 -19 -69 -30 -107
-12 -38 -24 -92 -27 -120 -3 -28 -10 -59 -15 -69 -42 -81 -206 -735 -249 -992
-19 -114 -117 -472 -144 -525 -7 -14 -23 -59 -35 -100 -13 -41 -28 -88 -35
-105 -14 -33 -70 -216 -87 -280 -5 -22 -14 -48 -19 -57 -5 -10 -9 -27 -9 -37
0 -11 -5 -23 -10 -26 -5 -3 -10 -15 -10 -25 0 -10 -6 -31 -14 -47 -8 -15 -20
-48 -27 -73 -7 -25 -16 -49 -21 -55 -4 -5 -8 -26 -8 -46 0 -21 -4 -41 -10 -44
-5 -3 -10 -28 -10 -55 0 -45 -32 -164 -82 -300 -11 -30 -22 -64 -25 -75 -2
-11 -8 -29 -13 -40 -17 -42 -30 -86 -60 -202 -12 -51 -25 -244 -24 -368 2
-187 42 -286 194 -474 215 -266 270 -383 270 -577 0 -160 -58 -364 -127 -443
-21 -24 -41 -51 -44 -60 -10 -25 -92 -97 -135 -119 -22 -10 -71 -35 -111 -56
-108 -56 -279 -74 -374 -40 -26 9 -57 13 -77 9 -40 -7 -99 18 -184 79 -111 79
-201 203 -241 331 -31 100 -31 303 2 424 60 225 151 354 349 497 122 88 187
146 208 187 31 59 44 174 44 390 0 226 8 304 42 401 12 34 25 81 29 106 4 25
13 65 19 90 6 25 14 63 16 85 3 22 9 49 14 60 18 44 32 135 26 166 -4 19 -10
52 -13 74 -3 22 -9 44 -14 50 -5 5 -9 19 -9 31 0 13 -4 26 -10 29 -5 3 -10 18
-10 33 0 33 -24 104 -47 139 -22 33 -73 190 -73 223 0 14 14 61 31 105 17 44
37 98 44 120 13 39 25 72 95 255 40 108 78 209 123 331 20 52 51 136 70 185
19 49 56 148 83 219 26 72 53 135 60 140 14 11 44 90 44 118 0 9 4 25 9 35 5
9 18 36 30 58 11 23 21 48 21 57 0 8 8 25 19 38 10 13 26 49 35 79 9 30 21 63
27 72 5 10 9 35 9 55 0 21 9 52 19 69 10 17 22 51 26 75 5 28 20 60 43 87 19
24 36 55 38 68 3 35 24 96 42 124 35 54 62 115 62 140 0 14 5 31 11 37 6 6 13
28 16 49 3 22 18 65 34 96 16 32 29 73 29 91 0 35 28 113 63 177 10 19 21 50
23 70 3 19 9 39 14 44 6 6 10 20 10 32 0 12 11 46 24 75 13 30 31 74 39 99 9
25 34 92 57 150 23 58 53 137 67 175 14 39 34 89 44 112 11 23 19 44 19 48 0
9 175 443 205 510 37 81 106 186 152 232 71 71 149 94 147 43z m-1702 -48 c29
-11 70 -25 92 -31 122 -41 304 -210 376 -351 61 -120 88 -362 55 -490 -30
-117 -141 -297 -293 -475 -132 -155 -176 -313 -154 -551 10 -112 43 -283 77
-401 8 -29 22 -79 31 -110 8 -32 24 -83 34 -113 53 -161 53 -187 0 -206 -19
-7 -72 -13 -116 -13 -74 -1 -83 1 -107 25 -14 14 -31 46 -37 72 -6 26 -16 65
-21 87 -6 22 -13 78 -16 125 -4 68 -9 88 -24 100 -15 12 -20 31 -23 86 -2 39
-9 81 -15 92 -7 13 -11 91 -11 209 0 216 -13 349 -39 408 -19 44 -68 88 -201
182 -125 89 -250 221 -250 264 0 9 -9 24 -19 33 -32 29 -59 98 -67 167 -3 35
-12 71 -20 79 -8 10 -15 66 -19 170 -7 150 -6 158 20 235 28 84 43 105 177
248 79 84 154 133 248 162 70 21 257 19 322 -3z m2825 -1261 c4 -16 18 -19 96
-24 123 -8 173 -18 297 -63 69 -25 113 -48 130 -66 14 -15 41 -34 60 -42 36
-15 61 -39 73 -69 4 -10 17 -17 32 -17 19 0 28 -8 39 -34 8 -19 21 -38 29 -42
38 -21 147 -219 147 -265 0 -17 7 -32 19 -38 14 -8 23 -34 36 -108 11 -62 24
-102 34 -110 14 -10 16 -81 19 -715 2 -482 0 -736 -8 -808 -13 -120 -26 -177
-40 -182 -10 -3 -23 -60 -37 -158 -3 -25 -16 -57 -29 -72 -12 -15 -34 -52 -48
-83 -15 -30 -31 -55 -36 -55 -5 0 -12 -10 -16 -22 -3 -13 -26 -44 -50 -70 -24
-26 -44 -52 -44 -58 0 -6 -11 -16 -25 -22 -14 -6 -25 -16 -25 -22 0 -14 -51
-66 -66 -66 -6 0 -19 -11 -28 -25 -9 -14 -25 -25 -36 -25 -10 0 -21 -8 -25
-18 -3 -11 -23 -24 -48 -32 -23 -7 -51 -16 -62 -21 -11 -4 -42 -10 -70 -13
-67 -6 -220 -37 -270 -54 -16 -6 -46 -15 -66 -21 -38 -12 -1074 -16 -1103 -5
-11 4 -16 19 -16 48 0 23 -8 52 -17 66 -17 24 -18 121 -21 1645 -1 891 0 1635
3 1653 l6 32 580 0 c561 0 581 -1 586 -19z m-2529 -1594 c2 -16 -5 -47 -16
-70 -11 -23 -23 -62 -27 -87 -4 -25 -11 -50 -16 -56 -8 -10 -180 -460 -253
-664 -7 -19 -19 -35 -26 -35 -7 0 -21 25 -32 55 -11 30 -40 107 -65 170 -38
99 -44 122 -38 163 6 49 23 97 35 97 3 0 14 28 23 63 10 34 22 76 28 92 6 17
20 57 31 90 11 33 24 68 29 77 5 10 9 25 9 33 0 8 4 23 9 33 6 9 12 29 16 45
l6 28 142 -3 142 -3 3 -28z m3767 -453 c59 -11 95 -22 105 -34 8 -10 44 -30
80 -45 36 -15 77 -32 92 -38 15 -6 29 -21 32 -33 5 -19 59 -75 83 -85 11 -5
53 -66 53 -78 0 -6 6 -14 13 -18 22 -14 77 -152 108 -272 25 -98 31 -142 35
-281 9 -274 -36 -439 -172 -630 -15 -20 -36 -37 -52 -40 -20 -4 -34 -18 -51
-51 -19 -36 -35 -51 -74 -68 -27 -13 -67 -26 -88 -28 -45 -6 -50 -18 -14 -27
14 -4 25 -12 25 -19 0 -6 27 -21 61 -31 51 -16 73 -31 138 -95 84 -82 115
-124 157 -211 33 -71 54 -136 54 -172 0 -20 5 -40 10 -43 6 -3 10 -18 10 -33
1 -15 7 -38 15 -52 24 -42 20 -361 -5 -478 -20 -92 -45 -168 -62 -186 -4 -6
-8 -19 -8 -30 0 -10 -11 -33 -24 -50 -13 -17 -26 -41 -30 -53 -11 -34 -193
-213 -255 -249 -191 -114 -195 -114 -1068 -114 -661 0 -704 1 -711 18 -4 9 -7
466 -7 1014 1 791 3 1000 13 1010 9 10 69 14 218 16 174 3 209 1 229 -12 21
-14 77 -16 424 -16 418 0 530 9 558 46 15 20 121 84 140 84 7 0 17 8 21 18 4
9 19 37 33 62 18 31 29 69 35 120 11 96 11 322 0 425 -10 90 -45 179 -79 197
-12 6 -46 35 -75 65 -47 47 -55 52 -72 41 -15 -10 -25 -10 -38 -2 -15 10 -17
34 -20 211 -3 213 2 249 40 256 13 2 25 5 28 6 3 0 46 -6 95 -15z m-3361 -826
c2 -7 9 -49 15 -93 16 -110 32 -183 107 -490 26 -104 50 -206 55 -225 4 -19
12 -51 17 -70 32 -114 42 -153 42 -168 0 -9 12 -39 25 -67 14 -27 25 -56 25
-63 0 -7 86 -313 190 -679 105 -367 190 -679 190 -693 0 -14 4 -30 8 -36 5 -5
17 -38 27 -74 10 -36 26 -90 36 -121 11 -30 19 -67 19 -80 0 -14 4 -29 8 -35
5 -5 14 -34 21 -64 13 -53 25 -97 72 -245 12 -38 25 -86 30 -105 4 -19 12 -51
18 -70 14 -52 82 -311 88 -337 3 -13 1 -23 -5 -23 -21 0 -68 71 -129 192 -172
346 -392 795 -422 865 -19 43 -43 96 -52 118 -29 65 -133 320 -261 640 -66
165 -134 334 -150 375 -17 41 -48 123 -69 183 -21 59 -45 122 -53 140 -7 17
-24 59 -36 92 -22 60 -40 104 -80 203 -11 29 -22 63 -23 75 -2 22 40 165 70
242 8 22 19 49 23 60 7 19 18 59 42 150 6 22 14 49 18 60 5 11 13 36 19 55 6
19 27 81 46 136 19 56 35 115 35 133 0 21 5 31 15 31 9 0 17 -6 19 -12z"/>
<path d="M3673 5798 c-22 -48 -96 -363 -97 -409 0 -70 30 -115 129 -195 61
-49 96 -86 113 -118 13 -25 30 -46 37 -46 14 0 25 43 25 95 0 31 -37 94 -74
124 -29 24 -108 132 -123 170 -18 43 -20 189 -3 293 14 89 11 126 -7 86z"/>
<path d="M3503 4880 c-59 -24 -75 -121 -28 -170 34 -35 67 -44 111 -30 43 15
74 58 74 105 0 29 -8 45 -34 71 -35 35 -75 43 -123 24z m98 -23 c29 -20 34
-29 37 -69 2 -37 -1 -51 -17 -67 -32 -32 -69 -37 -110 -15 -33 17 -36 24 -39
66 -4 59 7 79 50 94 44 17 41 17 79 -9z"/>
<path d="M3500 4828 c-60 -64 31 -158 96 -97 28 26 31 64 8 97 -21 30 -76 30
-104 0z m96 -19 c17 -19 17 -23 3 -47 -27 -50 -99 -34 -99 22 0 47 61 64 96
25z"/>
<path d="M3528 4809 c-24 -13 -23 -32 3 -55 15 -14 24 -16 37 -8 22 14 27 41
12 59 -14 17 -28 18 -52 4z"/>
<path d="M2970 2131 c-158 -50 -273 -173 -337 -360 -22 -64 -26 -94 -27 -191
0 -162 31 -252 120 -346 36 -38 123 -94 183 -118 62 -24 229 -21 302 6 30 10
72 23 94 28 27 6 50 20 75 49 89 102 130 153 130 163 0 6 6 19 14 27 24 28 66
202 66 271 0 227 -135 410 -349 474 -72 21 -200 20 -271 -3z"/>
<path d="M2889 8587 c-56 -18 -77 -33 -131 -88 -117 -119 -158 -225 -158 -404
0 -98 23 -196 56 -235 7 -8 16 -27 19 -43 4 -15 17 -35 30 -45 12 -10 29 -32
38 -49 22 -42 104 -108 172 -138 134 -60 278 -57 409 9 213 106 305 324 247
586 -12 52 -29 106 -40 120 -10 14 -28 44 -39 67 -32 62 -173 199 -214 207
-18 4 -55 11 -83 17 -27 5 -93 12 -145 14 -79 4 -106 1 -161 -18z"/>
<path d="M5410 6956 c-20 -9 -20 -15 -20 -1178 l0 -1168 311 0 c172 0 328 4
348 9 20 5 61 15 91 21 30 7 69 19 85 27 53 27 124 78 125 90 0 7 12 20 26 30
49 34 64 53 64 83 0 18 7 33 18 39 9 5 28 41 41 80 19 57 22 73 11 85 -10 13
-9 18 3 31 22 21 26 77 33 440 3 176 8 432 11 568 5 263 -2 357 -38 479 -12
40 -27 72 -38 77 -10 6 -21 23 -24 38 -3 15 -14 36 -24 45 -10 9 -47 44 -82
77 -69 66 -125 92 -246 116 -82 17 -662 26 -695 11z m1039 -1490 c8 -9 11 -70
9 -197 l-3 -184 -127 -3 -128 -3 0 -154 c0 -150 -1 -155 -22 -166 -13 -7 -27
-18 -31 -25 -4 -8 -17 -14 -28 -14 -11 0 -30 -5 -41 -11 -33 -18 -126 -31
-223 -33 l-90 -1 -3 389 c-1 279 1 393 9 402 17 21 661 20 678 0z"/>
<path d="M6205 3528 c-3 -7 -6 -260 -8 -563 -2 -302 -7 -565 -11 -583 -16 -63
-25 -62 402 -62 212 0 399 4 416 9 17 5 60 15 96 21 40 7 71 18 80 30 8 10 47
32 85 49 39 18 77 35 85 40 21 12 48 62 49 92 1 14 16 59 35 100 37 83 64 244
52 320 -22 151 -43 234 -67 255 -11 10 -19 30 -19 49 0 19 -8 39 -19 49 -11
10 -22 28 -25 41 -3 13 -18 28 -33 34 -16 6 -46 25 -68 41 -75 57 -84 62 -142
72 -32 6 -248 12 -481 15 -343 4 -423 2 -427 -9z"/>
<path d="M91 5579 c-6 -18 -11 -67 -11 -110 0 -43 -5 -81 -10 -84 -13 -8 -14
-877 -1 -890 5 -6 12 -55 15 -110 6 -138 21 -251 33 -267 10 -12 18 -54 27
-150 2 -20 8 -42 12 -50 5 -7 12 -35 16 -63 3 -27 12 -70 18 -95 6 -25 14 -62
17 -83 3 -20 9 -40 14 -43 5 -3 9 -16 9 -29 0 -13 4 -27 10 -30 5 -3 10 -21
10 -40 0 -19 5 -37 10 -40 6 -3 10 -16 10 -28 0 -13 7 -33 16 -45 9 -13 13
-29 10 -37 -2 -7 2 -19 10 -25 8 -7 14 -23 14 -36 0 -12 4 -26 10 -29 5 -3 10
-15 10 -26 0 -10 4 -27 9 -37 6 -9 13 -33 16 -53 3 -21 12 -42 20 -49 8 -7 15
-23 15 -35 0 -12 7 -28 15 -35 8 -7 15 -18 15 -24 0 -6 8 -27 18 -46 10 -19
24 -54 32 -77 7 -24 17 -43 22 -43 4 0 8 -6 8 -13 0 -18 178 -372 208 -414 12
-17 22 -35 22 -40 0 -6 11 -23 25 -39 14 -16 25 -33 25 -38 0 -5 8 -18 18 -29
15 -17 43 -61 88 -142 9 -16 25 -36 35 -43 11 -7 19 -19 19 -25 0 -7 12 -25
27 -42 15 -16 28 -35 29 -42 1 -8 17 -31 36 -53 18 -21 53 -65 78 -96 25 -31
69 -82 98 -113 30 -31 60 -67 67 -81 16 -29 389 -395 497 -488 40 -34 96 -83
124 -107 28 -25 56 -45 61 -45 5 0 18 -9 29 -21 10 -12 50 -39 87 -61 37 -23
73 -49 80 -59 7 -9 32 -25 55 -34 23 -10 48 -25 55 -35 6 -9 27 -26 46 -36 59
-33 70 -40 88 -55 10 -8 43 -26 73 -39 30 -13 62 -32 71 -41 15 -14 104 -60
219 -112 25 -12 52 -26 60 -32 8 -7 31 -17 50 -24 19 -7 52 -22 72 -32 20 -11
61 -28 90 -39 78 -28 148 -55 188 -72 19 -8 55 -21 80 -28 25 -8 49 -17 55
-22 5 -4 17 -8 27 -8 10 0 26 -4 36 -9 9 -5 46 -16 82 -24 36 -9 96 -25 134
-36 38 -11 73 -18 78 -15 5 3 17 -1 26 -9 16 -14 46 -21 137 -33 22 -3 49 -9
60 -14 11 -5 43 -11 70 -13 28 -2 59 -7 70 -11 20 -8 20 -7 1 8 -13 10 -39 16
-72 16 -29 0 -56 5 -59 10 -3 6 -24 10 -46 10 -22 0 -53 7 -69 15 -16 8 -36
12 -45 9 -9 -4 -23 0 -33 9 -9 8 -33 17 -52 20 -80 13 -106 19 -125 27 -11 4
-39 13 -62 19 -24 6 -62 16 -85 22 -24 6 -52 15 -63 20 -11 4 -42 14 -70 22
-27 8 -67 24 -88 36 -21 11 -45 21 -55 21 -9 0 -30 9 -47 20 -16 11 -39 20
-50 20 -11 0 -44 14 -74 30 -30 17 -60 30 -67 30 -18 0 -351 167 -359 179 -3
6 -36 25 -73 42 -37 17 -71 37 -75 45 -4 8 -13 14 -20 14 -7 0 -37 18 -67 40
-30 21 -73 48 -96 59 -22 11 -47 27 -54 36 -8 10 -44 37 -80 61 -115 78 -152
107 -187 141 -19 18 -39 33 -44 33 -5 0 -37 27 -70 60 -34 33 -69 62 -78 65
-22 7 -431 419 -431 434 0 7 -26 38 -58 69 -32 31 -63 64 -68 74 -5 9 -24 33
-42 55 -18 21 -44 54 -57 73 -45 66 -116 165 -151 210 -19 25 -44 65 -56 90
-13 24 -31 52 -40 62 -10 10 -18 22 -18 27 0 5 -6 16 -14 23 -7 8 -23 33 -35
56 -11 22 -31 56 -44 75 -31 45 -227 441 -227 459 0 7 -16 42 -35 78 -19 35
-35 71 -35 80 0 9 -7 25 -15 36 -8 10 -15 26 -15 34 0 8 -7 28 -15 44 -8 15
-15 39 -15 52 0 12 -4 26 -10 29 -5 3 -10 17 -10 30 0 13 -4 27 -10 30 -5 3
-10 15 -10 26 0 10 -4 27 -9 37 -16 32 -33 87 -36 115 -2 15 -7 33 -13 40 -5
7 -12 26 -16 42 -4 17 -11 48 -17 70 -20 80 -31 131 -36 175 -3 25 -9 49 -14
54 -5 6 -9 29 -9 52 0 24 -5 46 -10 49 -6 3 -10 23 -10 44 0 21 -7 56 -16 77
-9 22 -14 53 -11 74 2 20 0 45 -6 56 -20 34 -29 232 -30 664 0 388 7 548 29
643 9 37 -2 34 -15 -4z"/>
<path d="M4128 103 c6 -2 18 -2 25 0 6 3 1 5 -13 5 -14 0 -19 -2 -12 -5z"/>
<path d="M4513 103 c185 -2 489 -2 675 0 185 1 33 2 -338 2 -371 0 -523 -1
-337 -2z"/>
</g>
</svg>
